# xmcd
#
# Track frame offsets:
#	150
#	26914
#	47488
#	69111
#	91198
#	122138
#	144548
#	168305
#	193281
#	213303
#	227763
#	244794
#	259716
#	274684
#	292374
#	315786
#	333961
#
# Disc length: 4715 seconds
#
# Revision: 0
# Processed by: cddbd v1.5PL3 Copyright (c) Steve Scherf et al.
# Submitted via: audiograbber 1.83.01
#
DISCID=f6126911
DTITLE=CANNED HEAT - THE BOOGIE HOUSE TAPES VOL.2 [CD2)
DYEAR=2004
DGENRE=Blues
TTITLE0=Red Headed Woman
TTITLE1=24 Hours
TTITLE2=Turpentine Moan
TTITLE3=Kid Man Blues
TTITLE4=Oh Baby
TTITLE5=JJ Jump
TTITLE6=Sunnyland
TTITLE7=Built For Comfort
TTITLE8=Looking For A Party
TTITLE9=Dizzy Miss Lizzy
TTITLE10=Worried Life Blues
TTITLE11=Nitwit
TTITLE12=Gamblin´ Woman
TTITLE13=Mambo Tango
TTITLE14=Quiet Woman
TTITLE15=Creole Queen
TTITLE16=A Little Time With Me
EXTD=
EXTT0=
EXTT1=
EXTT2=
EXTT3=
EXTT4=
EXTT5=
EXTT6=
EXTT7=
EXTT8=
EXTT9=
EXTT10=
EXTT11=
EXTT12=
EXTT13=
EXTT14=
EXTT15=
EXTT16=
PLAYORDER=
